{
    "asset" : {
        "generator" : "Khronos glTF Blender I/O v3.2.40",
        "version" : "2.0"
    },
    "scene" : 0,
    "scenes" : [
        {
            "name" : "Scene",
            "nodes" : [
                0
            ]
        }
    ],
    "nodes" : [
        {
            "mesh" : 0,
            "name" : "Sphere.003"
        }
    ],
    "materials" : [
        {
            "doubleSided" : true,
            "name" : "Red_Glitter",
            "pbrMetallicRoughness" : {}
        },
        {
            "doubleSided" : true,
            "name" : "SilverMetal.002",
            "pbrMetallicRoughness" : {}
        }
    ],
    "meshes" : [
        {
            "name" : "Sphere.003",
            "primitives" : [
                {
                    "attributes" : {
                        "POSITION" : 0,
                        "NORMAL" : 1
                    },
                    "indices" : 2,
                    "material" : 0
                },
                {
                    "attributes" : {
                        "POSITION" : 3,
                        "NORMAL" : 4
                    },
                    "indices" : 5,
                    "material" : 1
                }
            ]
        }
    ],
    "accessors" : [
        {
            "bufferView" : 0,
            "componentType" : 5126,
            "count" : 2370,
            "max" : [
                0.9904001355171204,
                1.205938458442688,
                0.9903469085693359
            ],
            "min" : [
                -0.9904311895370483,
                -1.0143629312515259,
                -0.9904841184616089
            ],
            "type" : "VEC3"
        },
        {
            "bufferView" : 1,
            "componentType" : 5126,
            "count" : 2370,
            "type" : "VEC3"
        },
        {
            "bufferView" : 2,
            "componentType" : 5123,
            "count" : 14208,
            "type" : "SCALAR"
        },
        {
            "bufferView" : 3,
            "componentType" : 5126,
            "count" : 2337,
            "max" : [
                0.22363246977329254,
                1.5422028303146362,
                0.2282610982656479
            ],
            "min" : [
                -0.2199617475271225,
                1.075087547302246,
                -0.21502834558486938
            ],
            "type" : "VEC3"
        },
        {
            "bufferView" : 4,
            "componentType" : 5126,
            "count" : 2337,
            "type" : "VEC3"
        },
        {
            "bufferView" : 5,
            "componentType" : 5123,
            "count" : 13074,
            "type" : "SCALAR"
        }
    ],
    "bufferViews" : [
        {
            "buffer" : 0,
            "byteLength" : 28440,
            "byteOffset" : 0
        },
        {
            "buffer" : 0,
            "byteLength" : 28440,
            "byteOffset" : 28440
        },
        {
            "buffer" : 0,
            "byteLength" : 28416,
            "byteOffset" : 56880
        },
        {
            "buffer" : 0,
            "byteLength" : 28044,
            "byteOffset" : 85296
        },
        {
            "buffer" : 0,
            "byteLength" : 28044,
            "byteOffset" : 113340
        },
        {
            "buffer" : 0,
            "byteLength" : 26148,
            "byteOffset" : 141384
        }
    ],
    "buffers" : [
        {
            "byteLength" : 167532,
            "uri" : "data:application/octet-stream;base64,"
        }
    ]
}
